<svg width="51" height="24" viewBox="0 0 51 24" fill="none" xmlns="http://www.w3.org/2000/svg">
<path d="M38.4533 0C35.614 0 32.519 1.45586 29.2477 4.32352C27.6958 5.68234 26.3556 7.13826 25.3503 8.30293C25.3503 8.30293 25.3503 8.30293 25.3591 8.31181V8.30293C25.3591 8.30293 26.9463 10.0324 28.701 11.8853C29.6445 10.7648 31.0024 9.23822 32.5631 7.86178C35.4729 5.3118 37.3687 4.77355 38.4533 4.77355C42.5358 4.77355 45.8512 8.01175 45.8512 11.9912C45.8512 15.9441 42.5269 19.1824 38.4533 19.2088C38.2681 19.2088 38.03 19.1824 37.7302 19.1206C38.9206 19.6324 40.1991 20.003 41.416 20.003C48.8933 20.003 50.357 15.1236 50.454 14.7706C50.6744 13.8794 50.7891 12.9441 50.7891 11.9823C50.7891 5.38234 45.2516 0 38.4533 0Z" fill="url(#paint0_linear_3118_4708)"/>
<path d="M12.3358 23.9999C15.175 23.9999 18.27 22.544 21.5414 19.6763C23.0932 18.3175 24.4335 16.8617 25.4387 15.6969C25.4387 15.6969 25.4387 15.6969 25.4299 15.6881V15.6969C25.4299 15.6969 23.8427 13.9675 22.088 12.1146C21.1445 13.2352 19.7866 14.7616 18.2259 16.1381C15.3161 18.6881 13.4203 19.2264 12.3358 19.2264C8.25323 19.2176 4.93785 15.9793 4.93785 11.9999C4.93785 8.04698 8.26204 4.80871 12.3358 4.78221C12.5209 4.78221 12.759 4.80871 13.0588 4.87044C11.8685 4.35869 10.5899 3.98815 9.3731 3.98815C1.89579 3.98815 0.440849 8.86754 0.335073 9.21165C0.114648 10.1116 0 11.0381 0 11.9999C0 18.6175 5.53744 23.9999 12.3358 23.9999Z" fill="url(#paint1_linear_3118_4708)"/>
<path d="M41.3987 19.8971C37.5719 19.8 33.5951 16.7824 32.7839 16.0324C30.6853 14.0912 25.8445 8.84118 25.4654 8.42646C21.9207 4.44705 17.1151 0 12.336 0H12.3184C6.51635 0.026496 1.64008 3.96165 0.335073 9.21165C0.432114 8.86754 2.34568 3.89118 9.36447 4.06764C13.1913 4.16468 17.1857 7.22649 18.0057 7.97651C20.1043 9.91763 24.9451 15.1677 25.3242 15.5823C28.8689 19.5529 33.6745 24 38.4536 24H38.4712C44.2733 23.9736 49.1582 20.0383 50.4544 14.7883C50.3485 15.1324 48.4263 20.0647 41.3987 19.8971Z" fill="#29ABE2"/>
<defs>
<linearGradient id="paint0_linear_3118_4708" x1="13.3397" y1="1.89865" x2="30.8402" y2="32.0341" gradientUnits="userSpaceOnUse">
<stop offset="0.21" stop-color="#F15A24"/>
<stop offset="0.6841" stop-color="#FBB03B"/>
</linearGradient>
<linearGradient id="paint1_linear_3118_4708" x1="37.4493" y1="22.1022" x2="19.9603" y2="-8.02677" gradientUnits="userSpaceOnUse">
<stop offset="0.21" stop-color="#ED1E79"/>
<stop offset="0.8929" stop-color="#522785"/>
</linearGradient>
</defs>
</svg>
