<?xml version="1.0" encoding="UTF-8"?>
<svg id="Layer_1" data-name="Layer 1" xmlns="http://www.w3.org/2000/svg" xmlns:xlink="http://www.w3.org/1999/xlink" viewBox="0 0 283.46 283.46">
  <defs>
    <style>
      .cls-1 {
        fill: url(#linear-gradient);
      }

      .cls-1, .cls-2, .cls-3, .cls-4 {
        stroke-width: 0px;
      }

      .cls-2 {
        fill: #28abe5;
      }

      .cls-3 {
        fill: #fff;
      }

      .cls-4 {
        fill: #f61690;
      }
    </style>
    <linearGradient id="linear-gradient" x1="101.35" y1="231.49" x2="182.11" y2="231.49" gradientTransform="translate(0 286) scale(1 -1)" gradientUnits="userSpaceOnUse">
      <stop offset=".21" stop-color="#ffab3d"/>
      <stop offset=".68" stop-color="#fbad44"/>
    </linearGradient>
  </defs>
  <path class="cls-3" d="M316.5,14.26h28.62v108.74h-28.62V14.26Z"/>
  <path class="cls-3" d="M388.13,117.8c-8.64-5.06-15.3-11.91-19.99-20.55s-7.04-18.17-7.04-28.62,2.48-20.63,7.44-29.26c4.96-8.64,11.83-15.38,20.63-20.23,8.8-4.85,18.79-7.28,29.98-7.28,8,0,15.27,1.09,21.83,3.28s12.98,5.78,19.27,10.79l-13.75,20.47c-7.25-5.76-15.99-8.64-26.22-8.64-8.95,0-16.15,2.8-21.59,8.4-5.44,5.6-8.16,13.09-8.16,22.47s2.61,16.61,7.84,22.31c5.22,5.7,12.05,8.56,20.47,8.56,5.97,0,11.17-.96,15.59-2.88,4.42-1.92,8.45-4.85,12.07-8.79l16.47,19.51c-6.72,6.4-13.65,11.01-20.79,13.83s-15.19,4.24-24.15,4.24c-11.3,0-21.27-2.53-29.9-7.6h0Z"/>
  <path class="cls-3" d="M475.44,14.26h44.13c7.68,0,14.44,1.63,20.31,4.88,5.86,3.25,10.39,7.73,13.59,13.43s4.8,12.07,4.8,19.11-1.6,13.33-4.8,18.87-7.73,9.89-13.59,13.03c-5.86,3.15-12.69,4.72-20.47,4.72h-15.35v34.7h-28.62V14.26h0ZM514.94,64.79c4.69,0,8.29-1.2,10.79-3.6,2.5-2.4,3.76-5.57,3.76-9.51s-1.28-7.28-3.84-9.67c-2.56-2.4-6.13-3.6-10.71-3.6h-10.87v26.38h10.87Z"/>
  <path class="cls-3" d="M393.73,186.85h-27.98v82.35h-28.78v-82.35h-27.98v-26.38h84.75v26.38h0Z"/>
  <path class="cls-3" d="M426.43,264.24c-8.9-4.9-15.81-11.65-20.71-20.23s-7.36-18.31-7.36-29.18,2.45-20.76,7.36-29.34c4.9-8.58,11.81-15.3,20.71-20.15,8.9-4.85,19.05-7.28,30.46-7.28s21.53,2.43,30.38,7.28,15.75,11.57,20.71,20.15c4.96,8.58,7.44,18.36,7.44,29.34s-2.48,20.6-7.44,29.18c-4.96,8.58-11.86,15.33-20.71,20.23-8.85,4.9-18.98,7.36-30.38,7.36s-21.56-2.45-30.46-7.36ZM478.08,236.98c5.17-5.81,7.76-13.19,7.76-22.15s-2.59-16.47-7.76-22.23-12.23-8.64-21.19-8.64-16.18,2.88-21.35,8.64-7.76,13.17-7.76,22.23c0,5.86,1.17,11.14,3.52,15.83,2.34,4.69,5.7,8.37,10.07,11.03,4.37,2.67,9.54,4,15.51,4,8.96,0,16.02-2.9,21.19-8.71h.01Z"/>
  <path class="cls-3" d="M621.92,268.4v.8h-31.98l-30.06-45.25v45.25h-28.62v-108.74h28.62v45.25l27.02-45.25h31.18v.64l-32.78,52.61,36.62,54.69h0Z"/>
  <path class="cls-3" d="M706.03,244.58v24.63h-73.56v-108.74h72.12v24.63h-43.49v17.43h37.74v23.99h-37.74v18.07h44.93Z"/>
  <path class="cls-3" d="M819.56,160.46v109.22h-10.23l-49.41-47.49c-3.41-3.09-6.66-6.4-9.75-9.91.42,5.97.64,10.13.64,12.47v44.45h-28.14v-109.22h10.07l45.41,43.81c5.01,4.8,9.54,9.38,13.59,13.75-.21-4.26-.32-10.07-.32-17.43v-39.66h28.14,0Z"/>
  <path class="cls-3" d="M834.27,258.01l12.47-21.91c4.37,3.41,9.03,6.02,13.99,7.84,4.96,1.81,9.94,2.72,14.95,2.72,4.37,0,7.86-.69,10.47-2.08,2.61-1.38,3.92-3.41,3.92-6.08s-1.63-5.09-4.88-6.96c-3.25-1.86-8.29-3.81-15.11-5.84-10.34-3.09-18.2-7.57-23.59-13.43-5.38-5.86-8.08-12.9-8.08-21.11,0-6.82,1.78-12.74,5.36-17.75,3.57-5.01,8.45-8.82,14.63-11.43,6.18-2.61,13-3.92,20.47-3.92,6.61,0,12.9.88,18.87,2.64s12.26,4.61,18.87,8.56l-11.67,20.95c-4.9-2.66-9.3-4.58-13.19-5.76-3.89-1.17-7.76-1.76-11.59-1.76s-7.04.67-9.27,2c-2.24,1.33-3.36,3.12-3.36,5.36,0,2.67,1.57,4.88,4.72,6.64,3.14,1.76,7.65,3.6,13.51,5.52,10.77,3.31,19.03,7.73,24.79,13.27,5.76,5.54,8.63,12.69,8.63,21.43,0,7.04-1.81,13.17-5.44,18.39-3.63,5.22-8.64,9.25-15.03,12.07-6.4,2.82-13.59,4.24-21.59,4.24-15.57,0-29.85-4.53-42.86-13.59h.01Z"/>
  <circle class="cls-3" cx="141.73" cy="141.73" r="141.73"/>
  <path class="cls-4" d="M195.52,199.79c-15.09,0-30.95-8.94-47.14-26.57-2.4-2.62-4.63-5.23-6.65-7.72-2.02,2.49-4.25,5.1-6.65,7.72-16.19,17.63-32.05,26.57-47.14,26.57s-28-5.05-37.3-14.61c-15.73-16.16-16.13-39.34-16.07-43.45-.06-4.1.35-27.28,16.07-43.44,9.3-9.56,22.19-14.61,37.3-14.61s30.95,8.94,47.14,26.56c2.4,2.62,4.63,5.23,6.65,7.72,2.02-2.49,4.25-5.1,6.65-7.72,16.19-17.63,32.05-26.56,47.14-26.56s28,5.05,37.3,14.61c15.73,16.16,16.13,39.34,16.07,43.44.06,4.1-.35,27.28-16.07,43.45-9.3,9.56-22.2,14.61-37.3,14.61h0ZM158.56,141.73c10.29,14.09,26.16,30.15,36.96,30.15,7.61,0,13.27-2.02,17.3-6.17,8.21-8.44,8.18-23.46,8.17-23.61v-.74c.05-4.27-1.33-16.68-8.25-23.72-4.03-4.09-9.66-6.08-17.22-6.08-10.79,0-26.66,16.05-36.96,30.15v.02ZM62.47,142.1c-.05,4.29,1.34,16.68,8.26,23.71,4.03,4.09,9.66,6.08,17.21,6.08,10.8,0,26.66-16.05,36.96-30.16-10.29-14.09-26.16-30.15-36.96-30.15-7.56,0-13.19,1.99-17.22,6.08-6.93,7.03-8.31,19.45-8.25,23.72l.02.52-.02.2h0Z"/>
  <path class="cls-1" d="M182.11,68.9c-13.55,3.28-27.07,11.51-40.38,24.61-13.31-13.1-26.83-21.33-40.38-24.61l40.38-53.39,40.38,53.39Z"/>
  <path class="cls-2" d="M182.11,214.57l-40.38,53.38-40.38-53.38c13.55-3.28,27.07-11.52,40.38-24.62,13.31,13.1,26.82,21.33,40.38,24.62Z"/>
</svg>