<svg enable-background="new 0 0 2500 2500" viewBox="0 0 2500 2500" xmlns="http://www.w3.org/2000/svg" xmlns:xlink="http://www.w3.org/1999/xlink"><linearGradient id="a" gradientTransform="matrix(1 0 0 -1 0 2497.8899)" gradientUnits="userSpaceOnUse" x1="703.637" x2="1935.647" y1="1211.6566" y2="727.2267"><stop offset="0" stop-color="#264ca2" stop-opacity="0"/><stop offset="1" stop-color="#234588"/></linearGradient><path d="m0 0h2500v2500h-2500z" fill="none"/><path d="m2459.7 1566.6-540.6-937.7c-118.5-195.5-407.5-197.5-521.9 8.3l-567.6 975.2c-106 178.8 25 403.3 237.1 403.3h1137.3c214.1 0 374.2-230.8 255.7-449.1z" fill="#3156aa"/><path d="m1680 1639.4-33.3-58.2c-31.2-54.1-99.8-170.5-99.8-170.5l-457.4-794.3c-118.5-176.7-399.2-191.3-517.7 31.2l-532.3 921.1c-110.2 193.4 20.8 444.9 259.9 447h1131.1 482.4 286.9c-293.1 2.1-386.7-149.7-519.8-376.3z" fill="#1972e2"/><path d="m1680.1 1639.4-33.3-58.2c-31.2-54.1-99.8-170.5-99.8-170.5l-295.3-519.8-424.2 723.6c-106 178.8 25 403.4 237 403.4h363.9 482.4 289c-295.2-2.2-386.7-151.9-519.7-378.5z" fill="url(#a)"/></svg>