<svg width="24" height="24" viewBox="0 0 24 24" fill="none" xmlns="http://www.w3.org/2000/svg">
<path d="M12 22C17.5228 22 22 17.5228 22 12C22 6.47715 17.5228 2 12 2C6.47715 2 2 6.47715 2 12C2 17.5228 6.47715 22 12 22Z" fill="#5057FF"/>
<path d="M8.95783 9.76448L9.11835 8.79108H5.02307V15.2086H6.18602V12.6502H8.48178L8.6401 11.69H6.18602V9.76448H8.95783ZM17.8136 8.79108V9.85521H18.9769V8.79108H17.8136ZM17.8136 10.3706V14.2352H15.984L15.8227 15.2086H18.9769V10.3706H17.8136ZM8.95783 9.76448L9.11835 8.79108ZM16.359 8.79108L15.9851 11.056L15.4602 14.2352L15.2997 15.2086H14.1801L14.9165 10.7981H14.8603L12.3537 15.1869H11.5221L10.4844 10.7893H10.4282L9.6833 15.2086H8.56774L8.85462 13.4796L9.63187 8.79071H11.0575L12.1943 13.4381H12.2718L14.9423 8.79071H16.3594L16.359 8.79108Z" fill="white"/>
</svg>
