<svg viewBox="0 0 1588.36 1588.36" xmlns="http://www.w3.org/2000/svg"><circle cx="794.18" cy="794.18" fill="#ffaf0d" r="794.18"/><g fill="#d81112" opacity=".5"><path d="m1448.99 938.94 72.48 15.69c11.31-51.97 16.98-105.14 17.01-158.22-.03-53.07-5.7-106.24-17.01-158.22l-72.48 15.69c.64 2.88 1.39 5.74 1.93 8.65 4.86 25.94 9.03 52.04 10.92 78.38l-26.2 2.15c-3.16-38.3-9.68-76.29-19.53-113.41-9.8-37.13-23.05-73.36-39.58-108.04l23.77-11.23c5.32 12.07 11.2 23.91 15.76 36.31l7.26 18.41 6.38 18.74 2.84 8.39 70.64-22.56c-16.24-50.66-37.95-99.54-64.57-145.56-26.61-46.02-58.1-89.19-93.79-128.57l-54.86 49.9 5.81 6.69c8.68 9.95 17.38 19.88 25.34 30.42 8.36 10.23 15.97 21.02 23.57 31.81l-21.59 15c-21.9-31.57-46.61-61.2-73.74-88.43-27.23-27.13-56.86-51.85-88.43-73.74l15-21.58c10.79 7.6 21.58 15.21 31.81 23.57 10.54 7.96 20.47 16.66 30.42 25.34l6.69 5.81 49.9-54.86c-39.37-35.69-82.55-67.17-128.57-93.79-46.02-26.61-94.9-48.32-145.56-64.57l-22.56 70.64 8.39 2.84 18.74 6.38 18.41 7.26c12.4 4.56 24.23 10.44 36.31 15.76l-11.23 23.77c-34.68-16.52-70.9-29.78-108.03-39.58-37.12-9.85-75.11-16.37-113.41-19.53l2.15-26.2c26.34 1.89 52.44 6.07 78.38 10.93 2.9.54 5.76 1.3 8.65 1.93l15.69-72.48c-51.97-11.31-105.14-16.98-158.22-17.01-53.07.03-106.24 5.7-158.22 17.01l15.7 72.48c2.88-.64 5.74-1.39 8.65-1.93 25.94-4.86 52.04-9.03 78.38-10.93l2.15 26.2c-38.3 3.16-76.29 9.68-113.41 19.53-37.13 9.8-73.36 23.06-108.03 39.58l-11.23-23.77c12.07-5.32 23.91-11.2 36.31-15.76l18.41-7.26 18.74-6.38 8.39-2.84-22.56-70.64c-50.66 16.24-99.54 37.95-145.56 64.57-46.02 26.61-89.2 58.1-128.57 93.79l49.9 54.86 6.69-5.81c9.95-8.68 19.88-17.38 30.42-25.34 10.23-8.36 21.02-15.96 31.81-23.57l15 21.58c-31.57 21.9-61.2 46.61-88.43 73.74-27.13 27.23-51.85 56.86-73.74 88.43l-21.58-15c7.6-10.79 15.21-21.58 23.57-31.81 7.96-10.54 16.66-20.47 25.33-30.42l5.81-6.69-54.86-49.9c-35.69 39.38-67.17 82.55-93.79 128.57-26.61 46.02-48.32 94.9-64.57 145.56l70.64 22.56 2.84-8.39 6.38-18.74 7.26-18.41c4.56-12.4 10.44-24.23 15.76-36.31l23.77 11.23c-16.52 34.68-29.78 70.9-39.58 108.04-9.85 37.12-16.37 75.11-19.53 113.41l-26.2-2.15c1.89-26.34 6.07-52.44 10.92-78.38.54-2.9 1.3-5.76 1.93-8.65l-72.48-15.69c-11.31 51.97-16.98 105.14-17.01 158.22.03 53.07 5.7 106.24 17.01 158.22l72.48-15.69c-.64-2.88-1.39-5.74-1.93-8.65-4.86-25.94-9.03-52.04-10.92-78.38l26.2-2.15c3.16 38.3 9.68 76.29 19.53 113.41 9.8 37.13 23.05 73.36 39.58 108.03l-23.77 11.23c-5.32-12.07-11.2-23.91-15.76-36.31l-7.26-18.41-6.38-18.74-2.84-8.39-70.64 22.56c16.25 50.66 37.96 99.54 64.57 145.56s58.1 89.2 93.79 128.57l54.86-49.9-5.81-6.69c-8.68-9.95-17.38-19.88-25.33-30.42-8.36-10.23-15.96-21.01-23.57-31.81l21.58-15c21.9 31.57 46.61 61.2 73.74 88.43 27.23 27.13 56.86 51.85 88.43 73.74l-15 21.59c-10.79-7.6-21.58-15.21-31.81-23.57-10.54-7.96-20.47-16.66-30.42-25.34l-6.69-5.81-49.9 54.86c39.37 35.69 82.55 67.17 128.57 93.78s94.9 48.32 145.56 64.57l22.56-70.64-8.39-2.84-18.74-6.38-18.41-7.26c-12.4-4.56-24.23-10.44-36.31-15.76l11.23-23.77c34.68 16.52 70.9 29.78 108.03 39.58 37.12 9.85 75.11 16.37 113.41 19.53l-2.15 26.2c-26.34-1.89-52.44-6.07-78.38-10.93-2.9-.54-5.76-1.29-8.65-1.93l-15.7 72.48c51.97 11.31 105.14 16.98 158.22 17.01 53.07-.03 106.25-5.7 158.22-17.01l-15.69-72.48c-2.88.64-5.74 1.39-8.65 1.93-25.94 4.86-52.04 9.03-78.38 10.93l-2.15-26.2c38.3-3.16 76.29-9.68 113.41-19.53 37.13-9.79 73.36-23.05 108.03-39.58l11.23 23.77c-12.07 5.32-23.91 11.2-36.31 15.76l-18.41 7.26-18.74 6.38-8.39 2.84 22.56 70.64c50.66-16.25 99.54-37.96 145.56-64.57s89.2-58.1 128.57-93.78l-49.9-54.86-6.69 5.81c-9.95 8.68-19.88 17.38-30.42 25.34-10.23 8.36-21.01 15.96-31.81 23.57l-15-21.59c31.57-21.9 61.2-46.61 88.43-73.74 27.13-27.23 51.85-56.86 73.74-88.43l21.59 15c-7.6 10.79-15.21 21.58-23.57 31.81-7.96 10.54-16.66 20.47-25.34 30.42l-5.81 6.69 54.86 49.9c35.69-39.37 67.17-82.55 93.79-128.57 26.61-46.02 48.32-94.9 64.57-145.56l-70.64-22.56-2.84 8.39-6.38 18.74-7.26 18.41c-4.56 12.4-10.44 24.23-15.76 36.31l-23.77-11.23c16.52-34.68 29.78-70.9 39.58-108.03 9.85-37.12 16.37-75.11 19.53-113.41l26.2 2.15c-1.89 26.34-6.07 52.44-10.92 78.38-.54 2.9-1.3 5.76-1.93 8.65zm-35.65-112.96c-1.96 44.3-8.87 88.28-20.35 131.01-11.47 42.73-27.56 84.21-47.86 123.54l65.89 34.04 4.18-8.17c6.51-12.04 11.51-24.79 17.33-37.16 5.18-12.64 10.3-25.33 14.97-38.17l24.74 8.88c-14.59 40.45-32.81 79.58-54.34 116.78s-46.37 72.47-74.13 105.27l-20.05-16.99c9.11-10.2 17.08-21.34 25.67-31.97 7.93-11.13 16.12-22.09 23.58-33.54l4.95-7.73-62.35-40.15c-23.96 37.24-51.89 71.94-83.14 103.36-31.42 31.25-66.12 59.18-103.36 83.14l40.15 62.35 7.73-4.95c11.45-7.46 22.42-15.65 33.54-23.58 10.63-8.59 21.77-16.56 31.96-25.67l16.99 20.05c-32.8 27.76-68.07 52.6-105.27 74.13s-76.33 39.74-116.78 54.34l-8.88-24.74c12.84-4.67 25.53-9.79 38.17-14.97 12.37-5.82 25.12-10.83 37.16-17.33l8.17-4.18-34.04-65.89c-39.33 20.3-80.81 36.38-123.54 47.86s-86.71 18.39-131.01 20.35l3.47 74.08c3.06 0 6.11-.36 9.16-.56 13.61-1.17 27.3-1.68 40.82-3.72l20.34-2.59c6.76-.97 13.47-2.33 20.2-3.48l4.65 25.87c-42.31 7.61-85.27 11.44-128.22 11.59-42.94-.16-85.91-3.99-128.21-11.59l4.65-25.87c6.74 1.15 13.44 2.52 20.2 3.48l20.34 2.59c13.53 2.04 27.21 2.54 40.83 3.72 3.05.2 6.1.55 9.16.56l3.47-74.08c-44.3-1.96-88.28-8.87-131.01-20.35-42.73-11.47-84.21-27.56-123.54-47.86l-34.03 65.89 8.17 4.18c12.04 6.5 24.79 11.51 37.16 17.33 12.64 5.18 25.33 10.3 38.17 14.97l-8.88 24.74c-40.45-14.59-79.58-32.81-116.78-54.34s-72.47-46.37-105.27-74.13l16.99-20.05c10.2 9.11 21.34 17.08 31.96 25.67 11.13 7.93 22.09 16.12 33.54 23.58l7.73 4.95 40.15-62.35c-37.24-23.96-71.94-51.89-103.36-83.14-31.25-31.42-59.18-66.12-83.14-103.36l-62.35 40.15 4.96 7.73c7.46 11.45 15.65 22.42 23.58 33.54 8.59 10.63 16.56 21.77 25.67 31.97l-20.05 16.99c-27.76-32.8-52.6-68.07-74.13-105.27s-39.74-76.33-54.34-116.78l24.74-8.88c4.67 12.84 9.79 25.53 14.97 38.17 5.82 12.37 10.83 25.12 17.33 37.16l4.18 8.17 65.89-34.04c-20.3-39.33-36.38-80.81-47.86-123.54s-18.39-86.71-20.35-131.01l-74.08 3.47c0 3.06.36 6.11.56 9.16 1.17 13.61 1.68 27.3 3.72 40.82l2.59 20.34c.97 6.76 2.33 13.47 3.48 20.2l-25.87 4.65c-7.61-42.31-11.44-85.27-11.6-128.22.16-42.95 3.99-85.91 11.6-128.21l25.87 4.65c-1.15 6.74-2.52 13.44-3.48 20.2l-2.59 20.34c-2.04 13.53-2.54 27.21-3.72 40.83-.2 3.05-.55 6.1-.56 9.16l74.08 3.47c1.96-44.3 8.87-88.28 20.35-131.01 11.47-42.73 27.56-84.21 47.86-123.54l-65.89-34.04-4.18 8.17c-6.51 12.04-11.51 24.79-17.33 37.16-5.18 12.64-10.3 25.33-14.97 38.17l-24.74-8.88c14.59-40.45 32.81-79.58 54.34-116.78s46.37-72.47 74.13-105.27l20.05 16.99c-9.11 10.2-17.08 21.34-25.67 31.96-7.93 11.13-16.12 22.09-23.58 33.54l-4.96 7.73 62.35 40.15c23.96-37.24 51.89-71.94 83.14-103.36 31.42-31.25 66.12-59.18 103.36-83.14l-40.15-62.35-7.73 4.96c-11.45 7.46-22.41 15.65-33.54 23.58-10.63 8.59-21.77 16.56-31.96 25.67l-16.99-20.05c32.8-27.76 68.07-52.6 105.27-74.13s76.33-39.74 116.78-54.34l8.88 24.74c-12.84 4.67-25.53 9.79-38.17 14.97-12.37 5.82-25.12 10.83-37.16 17.33l-8.17 4.18 34.03 65.89c39.33-20.3 80.81-36.38 123.54-47.86s86.71-18.39 131.01-20.35l-3.47-74.08c-3.06 0-6.11.36-9.16.56-13.61 1.17-27.3 1.68-40.83 3.72l-20.34 2.59c-6.76.97-13.47 2.33-20.2 3.48l-4.65-25.87c42.31-7.61 85.27-11.44 128.21-11.6 42.95.16 85.91 3.99 128.22 11.6l-4.65 25.87c-6.74-1.15-13.44-2.52-20.2-3.48l-20.34-2.59c-13.53-2.04-27.21-2.54-40.82-3.72-3.05-.2-6.1-.55-9.16-.56l-3.47 74.08c44.3 1.96 88.28 8.87 131.01 20.35 42.73 11.47 84.21 27.56 123.54 47.86l34.04-65.89-8.17-4.18c-12.04-6.51-24.79-11.51-37.16-17.33-12.64-5.18-25.33-10.3-38.17-14.97l8.88-24.74c40.45 14.59 79.58 32.81 116.78 54.34s72.47 46.37 105.27 74.13l-16.99 20.05c-10.2-9.11-21.34-17.08-31.96-25.67-11.13-7.93-22.09-16.12-33.54-23.58l-7.73-4.96-40.15 62.35c37.24 23.96 71.94 51.89 103.36 83.14 31.25 31.42 59.18 66.12 83.14 103.36l62.35-40.15-4.95-7.73c-7.46-11.45-15.65-22.42-23.58-33.54-8.59-10.63-16.56-21.77-25.67-31.96l20.05-16.99c27.76 32.8 52.6 68.07 74.13 105.27s39.74 76.33 54.34 116.78l-24.74 8.88c-4.67-12.84-9.79-25.53-14.97-38.17-5.82-12.37-10.83-25.12-17.33-37.16l-4.18-8.17-65.89 34.04c20.3 39.33 36.38 80.81 47.86 123.54s18.39 86.71 20.35 131.01l74.08-3.47c0-3.06-.36-6.11-.56-9.16-1.17-13.61-1.68-27.3-3.72-40.83l-2.59-20.34c-.97-6.76-2.33-13.47-3.48-20.2l25.87-4.65c7.61 42.31 11.44 85.27 11.6 128.21-.16 42.95-3.99 85.91-11.6 128.22l-25.87-4.65c1.15-6.74 2.52-13.44 3.48-20.2l2.59-20.34c2.04-13.53 2.54-27.21 3.72-40.82.2-3.05.55-6.1.56-9.16z"/><path d="m794.18 1573.53c-429.74 0-779.35-349.62-779.35-779.35s349.61-779.35 779.35-779.35 779.35 349.62 779.35 779.35-349.62 779.35-779.35 779.35zm0-1539.32c-419.04-0-759.96 340.93-759.96 759.97s340.92 759.96 759.96 759.96 759.96-340.92 759.96-759.96-340.92-759.97-759.96-759.97z"/><path d="m794.18 209.96c322.14 0 584.22 262.08 584.22 584.22s-262.08 584.22-584.22 584.22-584.22-262.08-584.22-584.22 262.08-584.22 584.22-584.22m0-18.91c-333.1 0-603.13 270.03-603.13 603.13s270.03 603.13 603.13 603.13 603.13-270.03 603.13-603.13-270.03-603.13-603.13-603.13z"/></g><rect fill="#d81112" height="915.64" rx="30.24" transform="matrix(.96487908 .26269442 -.26269442 .96487908 236.52 -180.6)" width="609.3" x="488.97" y="336.36"/><path d="m565.92 471.17-7.56 27.26c.24.33.5.68.74 1.03 29.13 40.35 77.91 90.63 156.43 130.18 9.16 4.63 18.72 9.09 28.71 13.39 22.47 9.65 47.05 18.39 73.95 25.85 33.18 9.21 64.6 15 94.11 18.15 10.8 1.13 21.34 1.93 31.61 2.4 81.25 3.79 146.2-12.25 191.57-29.8 3.96-1.53 7.82-3.09 11.59-4.69l7.48-26.97c-8.64 4.09-17.94 8.11-27.91 11.94-42.59 16.35-103.36 31.27-179.43 28.1-10.06-.42-20.42-1.15-31-2.26-28.87-2.98-59.67-8.6-92.28-17.64-26.54-7.36-50.7-16.01-72.69-25.55h-.02c-9.79-4.23-19.16-8.66-28.1-13.23-73.03-37.24-118.55-83.97-145.85-121.52-4.1-5.63-7.88-11.19-11.37-16.63z" fill="#ffaf0d"/><path d="m715.87 629.29c-17.4 62.7 19.33 127.62 82.02 145.02 62.7 17.4 127.62-19.33 145.02-82.02 17.4-62.7-19.33-127.62-82.02-145.02s-127.62 19.33-145.02 82.02z" fill="#ff7901"/><path d="m745.75 637.58c-12.82 46.19 14.24 94.03 60.43 106.85s94.03-14.24 106.85-60.43-14.24-94.03-60.44-106.85c-46.19-12.82-94.03 14.24-106.85 60.43z" fill="#ffaf0d"/><path d="m1058.79 393.4c-22.64 79.05-104.69 125.46-184.28 103.79-80.07-21.8-127.37-104.23-105.89-184.31z" fill="#9d1112" opacity=".2"/></svg>