<?xml version="1.0" encoding="UTF-8"?>
<svg width="880" height="880" version="1.0" viewBox="0 0 666 666" xmlns="http://www.w3.org/2000/svg">
    <g>
        <path fill="#fff" stroke="#000" stroke-width="26.489" d="m646.69 333c0 83.196-33.05 162.98-91.878 221.81-58.829 58.828-138.62 91.878-221.81 91.878-173.25 0-313.69-140.44-313.69-313.69s140.44-313.69 313.69-313.69c83.196 0 162.98 33.05 221.81 91.878 58.828 58.829 91.878 138.62 91.878 221.81z"/>
        <path d="m312.45 61.265c-22.117 1.7644-43.332 6.2274-65.548 13.908-68.651 23.664-125.39 74.107-157.42 139.91-33.224 67.983-37.327 136.38-12.609 206.23 20.315 57.189 63.346 110.43 115.49 142.92 23.617 14.634 51.737 26.674 78.557 33.42 87.965 22.108 185.54-6.538 254.09-74.625 43.332-42.97 72.353-103.27 79.158-164.4 1.602-13.908 0.801-48.782-1.501-63.416-8.606-56.047-34.425-107.94-74.554-149.56-8.006-8.303-18.314-18.267-23.017-22.107-38.829-31.864-88.565-53.868-136.6-60.303-11.609-1.5568-45.934-2.8023-56.041-1.972zm-93.469 119.77c27.52 5.812 50.737 19.409 73.054 42.658 4.103 4.255 20.114 23.042 35.526 41.516 37.027 44.527 41.93 50.443 69.651 84.486 25.118 31.034 31.523 37.988 41.73 45.149 36.827 25.844 86.664 12.87 105.18-27.401 8.607-18.682 9.207-43.488 1.602-63.001-7.606-19.305-26.019-35.496-46.635-41.101-8.806-2.387-25.418-2.283-34.025 0.104-18.113 5.086-31.122 14.219-53.739 37.468l-17.112 17.749-8.607-11.002c-4.703-6.124-8.806-11.729-9.106-12.559-0.601-1.764 24.518-27.401 36.226-37.053 14.911-12.455 31.323-20.655 48.235-24.287 7.906-1.661 12.109-1.972 23.117-1.557 20.315 0.83 32.224 4.255 48.436 14.115 9.407 5.605 24.618 20.551 29.922 29.373 9.607 15.673 13.91 27.505 16.312 44.838 7.305 51.48-24.218 100.78-73.154 114.38-8.706 2.388-11.909 2.803-25.018 2.803-12.91 0-16.412-0.415-25.219-2.699-17.913-4.774-32.824-13.181-46.033-25.948-6.705-6.538-35.026-39.751-60.845-71.304-65.348-80.126-82.661-99.95-96.271-110.23-7.505-5.708-22.116-13.285-32.323-16.814-32.824-11.209-72.353-6.123-100.07 12.766-8.606 5.813-8.406 5.709-7.505 4.152 5.003-8.615 16.712-22.211 24.618-28.542 6.405-5.086 18.113-11.936 24.918-14.531 15.511-5.812 39.229-7.265 57.142-3.529zm276.8 1.453c18.313 5.293 30.322 12.144 41.53 23.664 6.505 6.643 16.813 20.032 16.813 21.796 0 0.519-2.202-0.622-4.804-2.594-14.21-10.898-35.426-18.475-57.042-20.343-36.426-3.322-69.25 8.199-98.071 34.251-13.01 11.832-27.12 30.618-29.522 39.44l-1.201 4.256-6.104-8.096c-3.403-4.567-8.006-10.587-10.308-13.597l-4.103-5.293 7.706-10.794c27.019-37.261 57.742-57.916 97.371-65.596 1.401-0.208 10.608-0.311 20.515-0.104 15.712 0.208 19.214 0.623 27.22 3.01zm-297.42 50.858c18.213 3.425 35.126 11.52 48.435 23.249 7.006 6.227 43.232 49.093 84.162 99.847 21.316 26.466 51.738 63.001 59.043 70.889 18.814 20.55 42.532 33.42 69.251 37.468 23.517 3.633 45.834 1.246 66.649-7.265 9.207-3.737 20.215-10.172 24.518-14.427 7.906-7.784-2.202 7.577-12.109 18.371-13.91 15.153-27.22 23.353-45.833 28.542-8.707 2.388-11.909 2.699-26.42 2.699-12.109 0-18.613-0.415-24.518-1.765-24.218-5.5-44.933-16.398-64.347-33.939-4.303-3.84-13.71-14.012-20.915-22.419-21.516-25.429-79.459-96.525-103.08-126.42-7.205-9.134-16.212-19.72-20.015-23.561-29.421-29.995-70.952-30.826-98.372-1.972-22.716 23.768-26.519 62.171-9.206 91.959 14.71 25.325 45.733 38.714 73.453 31.76 18.914-4.671 38.228-18.267 57.943-40.686l8.806-10.172 8.106 9.964c4.404 5.397 8.006 10.276 8.006 10.691 0 2.387-8.106 14.531-14.31 21.381-14.511 16.191-35.827 30.203-55.241 36.326-8.406 2.699-10.307 2.907-27.02 2.907-15.911 0.103-18.913-0.208-26.019-2.284-16.712-4.982-30.922-13.7-43.331-26.363-27.02-27.504-36.727-69.851-24.418-106.7 11.908-35.496 41.73-62.482 75.955-68.502 7.906-1.349 22.217-1.141 30.823 0.416zm102.18 166.48c3.302 4.359 7.505 10.172 9.307 12.766l3.302 4.879-4.803 8.614c-6.105 11.417-12.61 19.72-23.017 29.892-26.82 26.051-59.744 38.818-93.669 36.327-18.514-1.35-33.625-6.539-47.935-16.607-7.906-5.501-19.514-17.852-25.919-27.504-5.204-7.888-5.304-8.096-1.801-4.879 15.111 13.493 43.832 23.146 69.35 23.146 25.919 0 57.543-11.521 78.058-28.335 12.909-10.587 27.019-31.449 29.121-42.762 0.3-1.972 0.901-3.633 1.301-3.633 0.3 0.104 3.302 3.633 6.705 8.096z"/>
    </g>
</svg>